<svg width="14" height="14" viewBox="0 0 14 14" fill="none" xmlns="http://www.w3.org/2000/svg">
<path d="M6.99965 0C10.8632 0 14 3.13678 14 6.99965C14 10.8632 10.8632 14 6.99965 14C3.13678 14 0 10.8632 0 6.99965C0 3.13678 3.13678 0 6.99965 0ZM6.99965 1.05026C3.71583 1.05026 1.05026 3.71583 1.05026 6.99965C1.05026 10.2835 3.71583 12.9497 6.99965 12.9497C10.2835 12.9497 12.9497 10.2835 12.9497 6.99965C12.9497 3.71583 10.2835 1.05026 6.99965 1.05026ZM6.99965 6.24906L8.90203 4.34599C9.00425 4.24376 9.13939 4.19265 9.27382 4.19265C9.55669 4.19265 9.79895 4.42021 9.79895 4.71778C9.79895 4.85291 9.74784 4.98665 9.64561 5.08957L7.74324 6.99195L9.65261 8.90203C9.75554 9.00495 9.80665 9.13939 9.80665 9.27382C9.80665 9.57279 9.56229 9.79895 9.28152 9.79895C9.14709 9.79895 9.01265 9.74784 8.91043 9.64561L6.99965 7.73553L5.08957 9.64561C4.98735 9.74784 4.85291 9.79895 4.71848 9.79895C4.43771 9.79895 4.19265 9.57279 4.19265 9.27382C4.19265 9.13939 4.24376 9.00495 4.34669 8.90203L6.25676 6.99195L4.35089 5.08607C4.24866 4.98315 4.19755 4.84941 4.19755 4.71428C4.19755 4.4167 4.43981 4.18985 4.72268 4.18985C4.85711 4.18985 4.99225 4.24096 5.09447 4.34319L6.99965 6.24906Z" fill="#0B2545"/>
</svg>
