<svg width="20" height="18" viewBox="0 0 20 18" fill="none" xmlns="http://www.w3.org/2000/svg">
<path fill-rule="evenodd" clip-rule="evenodd" d="M9.58333 6H10.4167V11.8695L12.5 9.5625L13.1275 10.0612L10 13.5L6.88583 10.0807L7.5 9.573L9.58333 11.871V6ZM15.4167 15H4.58333C2.51583 15 0.833333 13.4858 0.833333 11.625C0.833333 9.9915 2.12917 8.5965 3.915 8.307L4.56417 8.202L4.6 7.6095C4.75417 5.02425 7.12583 3 10 3C12.8742 3 15.2458 5.02425 15.3992 7.6095L15.435 8.202L16.085 8.307C17.87 8.5965 19.1667 9.9915 19.1667 11.625C19.1667 13.4858 17.4842 15 15.4167 15ZM16.2325 7.569C16.0558 4.60575 13.3383 2.25 10 2.25C6.66167 2.25 3.94417 4.60575 3.7675 7.569C1.62583 7.91625 0 9.5985 0 11.625C0 13.9028 2.0525 15.75 4.58333 15.75H15.4167C17.9475 15.75 20 13.9028 20 11.625C20 9.5985 18.3742 7.91625 16.2325 7.569Z" fill="#0B2545"/>
</svg>
